. 
 
http://www.torrenting.com          :     Once & For all ;)


               www . Torrenting . Com 

(((((((((((((= Enjoy No RAR releases =))))))))))))))))))))


...................................NFO:....................................

.Format : MPEG-4
Format profile : Base Media / Version 2
Codec ID : mp42
File size : 1.53 GiB
Duration : 2h 0mn
Overall bit rate mode : Variable
Overall bit rate : 1 827 Kbps
Encoded date : UTC 2012-03-05 09:04:40
Tagged date : UTC 2012-03-05 10:05:28
Writing application : HandBrake 0.9.6 2012022800

Video
ID : 1
Format : AVC
Format/Info : Advanced Video Codec
Format profile : High@L3.0
Format settings, CABAC : Yes
Format settings, ReFrames : 4 frames
Codec ID : avc1
Codec ID/Info : Advanced Video Coding
Duration : 2h 0mn
Bit rate mode : Variable
Bit rate : 1 500 Kbps
Width : 720 pixels
Height : 304 pixels
Display aspect ratio : 2.35:1
Original display aspect ratio : 2.35:1
Frame rate mode : Variable
Frame rate : 29.910 fps
Minimum frame rate : 19.973 fps
Maximum frame rate : 29.980 fps
Color space : YUV
Chroma subsampling : 4:2:0
Bit depth : 8 bits
Scan type : Progressive
Bits/(Pixel*Frame) : 0.229
Stream size : 1.26 GiB (82%)
Writing library : x264 core 120
Encoded date : UTC 2012-03-05 09:04:40
Tagged date : UTC 2012-03-05 10:05:28
Color primaries : BT.601-6 525, BT.1358 525, BT.1700 NTSC, SMPTE 170M
Transfer characteristics : BT.709-5, BT.1361
Matrix coefficients : BT.601-6 525, BT.1358 525, BT.1700 NTSC, SMPTE 170M

Audio #1
ID : 2
Format : AAC
Format/Info : Advanced Audio Codec
Format profile : LC
Codec ID : 40
Duration : 2h 0mn
Bit rate mode : Variable
Bit rate : 161 Kbps
Maximum bit rate : 198 Kbps
Channel(s) : 2 channels
Channel positions : Front: L R
Sampling rate : 48.0 KHz
Compression mode : Lossy
Stream size : 139 MiB (9%)
Encoded date : UTC 2012-03-05 09:04:40
Tagged date : UTC 2012-03-05 10:05:27

Audio #2
ID : 3
Format : AC-3
Format/Info : Audio Coding 3
Mode extension : CM (complete main)
Codec ID : ac-3
Duration : 2h 0mn
Bit rate mode : Constant
Bit rate : 160 Kbps
Channel(s) : 2 channels
Channel positions : Front: L R
Sampling rate : 48.0 KHz
Bit depth : 16 bits
Compression mode : Lossy
Stream size : 138 MiB (9%)
Encoded date : UTC 2012-03-05 09:04:40
Tagged date : UTC 2012-03-05 10:05:27